PathFileType	4	(X/Y/Z)	C:\Users\WrightLab\Desktop\Jo\P5V129.trc
DataRate	CameraRate	NumFrames	NumMarkers	Units	OrigDataRate	OrigDataStartFrame	OrigNumFrames
100.00	100.00	       13	19	mm	100.00	420	       671
Frame#	Time	Headset_Front			Headset_Back			Headset_Left			Headset_Right			Left_Shoulder			Right_Shoulder			Sternum			C7			Left Elbow			Right Elbow			Left Wrist			Right Wrist			Left ASIS			Right ASIS			S2			Left Knee			Right Knee			Left Ankle			Right Ankle			
		X1	Y1	Z1	X2	Y2	Z2	X3	Y3	Z3	X4	Y4	Z4	X5	Y5	Z5	X6	Y6	Z6	X7	Y7	Z7	X8	Y8	Z8	X9	Y9	Z9	X10	Y10	Z10	X11	Y11	Z11	X12	Y12	Z12	X13	Y13	Z13	X14	Y14	Z14	X15	Y15	Z15	X16	Y16	Z16	X17	Y17	Z17	X18	Y18	Z18	X19	Y19	Z19	

420	4.190	391.01971	1564.96057	10.29889							274.27777	1478.90186	-48.93515	86.90185	1484.10107	114.76733	463.25232	1513.71570	280.53528	342.22849	1342.65796	137.08133	224.73785	1550.83301	302.00107	-53.20450	1261.22644	45.82704	527.53827	1263.54102	434.41525	-75.73357	1180.24194	-179.53545	590.63879	1083.82800	284.17480	271.65286	939.04700	60.13944	497.39877	996.30963	249.11877	199.22107	999.74060	356.89502	247.34377	504.15903	86.54035	573.89111	582.57269	197.43642	197.95174	105.11230	300.73920	439.50266	207.77763	388.06964	
421	4.200	396.42538	1564.66125	2.80519							278.21179	1478.18713	-54.86224	92.47463	1483.96570	110.26894	470.07571	1513.61438	272.88403	347.37012	1341.98108	131.28731	231.67505	1550.92615	296.57367	-48.88518	1261.17188	43.56658	535.19830	1263.16650	427.30359	-72.11374	1178.74207	-180.13657	596.74677	1082.95947	276.80356	274.81393	938.41278	57.08627	501.88843	995.10492	242.74115	206.50241	1000.10614	354.48254	249.66066	503.99094	84.48218	577.67401	582.87579	188.93491	198.21495	105.81185	300.88678	460.87985	198.23463	371.98651	
422	4.210	395.87689	1561.03870	-4.54568							281.99969	1477.44373	-60.65168	97.76873	1484.10913	106.27330	477.39655	1513.06360	265.31433	352.42383	1341.53040	125.04028	239.88609	1551.38904	290.02957	-44.37693	1260.76355	41.77901	542.79779	1263.19165	419.63116	-68.47764	1177.58362	-181.60376	603.20465	1082.06787	269.89804	277.84106	938.16486	53.70416	505.87332	994.68451	235.15730	214.84921	999.94012	351.36343	251.65414	503.28439	82.78531	580.98004	581.97742	180.91420	198.39531	106.58055	300.66153	481.89008	189.48476	355.79385	
423	4.220	399.10733	1560.17017	-10.47707							286.02158	1476.68042	-66.61877	103.19218	1483.99939	101.94607	484.29849	1512.09753	258.02176	358.16785	1341.47070	118.46585	246.53477	1551.29907	284.64200	-39.66310	1260.68738	40.22320	550.29852	1262.66309	412.01315	-64.91203	1175.07642	-181.85538	609.32800	1081.27393	262.15396	280.97000	937.70099	50.28144	509.77731	993.13074	229.05426	221.66106	999.38794	348.83658	253.50081	502.84399	81.10127	583.69690	580.65912	173.71594	198.76624	107.20099	300.72769	503.25952	180.60704	338.55197	
424	4.230	403.94385	1559.68835	-18.69189							290.08960	1476.50378	-72.49684	108.68398	1483.97083	97.43035	491.20679	1511.66357	249.86201	363.36423	1340.21643	112.42572	253.73839	1551.80615	278.94321	-35.36578	1260.55823	37.84887	558.10498	1262.22754	404.32855	-61.08994	1173.11536	-182.52512	616.14026	1080.30896	254.87651	284.28824	936.66870	47.00258	513.99133	991.53607	222.97655	229.45862	999.51855	345.35654	255.98297	502.09683	78.64742	586.70532	578.99469	167.19507	199.15570	107.64038	300.45593	523.93835	171.92375	320.37045	
425	4.240	409.29916	1559.52197	-25.89394							294.22812	1476.01404	-78.05889	114.28004	1484.06958	92.79581	497.74030	1510.77173	241.74933	368.68488	1339.38318	105.82947	260.80493	1551.58398	273.18436	-30.51667	1260.03833	36.57983	565.37939	1261.69189	396.31113	-57.64717	1170.70947	-183.51427	622.09924	1079.54956	247.07515	287.54727	935.78491	42.86237	518.01239	991.08966	215.44113	236.80632	999.88446	342.75537	257.69864	501.57056	77.03788	588.46332	577.07214	161.09924	199.70917	108.18703	299.97543	544.64026	164.19681	301.24094	
426	4.250	414.00134	1559.04712	-32.13781							298.45880	1476.06287	-84.31234	119.92447	1483.75525	87.85705	504.78125	1510.20947	233.61438	373.45480	1338.63147	98.65915	268.51968	1551.67114	266.72931	-25.54612	1259.56592	35.42933	572.41748	1260.97290	388.87067	-53.49904	1168.94104	-183.44762	628.33569	1078.28955	239.18530	290.95972	935.09113	39.81753	521.99835	989.66119	208.84636	243.82475	999.50214	339.33200	259.94983	501.05215	75.21010	590.77472	574.46094	156.13158	199.92029	108.52364	299.84128	564.32593	156.66943	281.99326	
427	4.260	418.85098	1558.90759	-40.52757							302.51309	1476.03967	-91.55299	125.46967	1483.83728	83.67609	511.79938	1508.89038	225.89291	378.57156	1337.79956	91.95641	275.54047	1551.42078	260.92947	-20.83534	1259.06519	33.43602	580.27582	1260.35181	380.49271	-49.72731	1166.13794	-184.51546	634.37494	1077.30457	231.36719	294.36951	934.45941	36.47682	526.08356	988.53754	202.41788	251.03798	999.95410	336.17291	262.53806	500.10129	73.36298	593.02844	571.33179	151.72206	200.30643	108.87001	299.42419	583.12567	150.31949	262.85916	
428	4.270	423.88409	1559.11975	-47.40586							307.04373	1475.79211	-98.14257	130.90553	1483.59216	79.20873	518.37811	1508.04370	217.21332	383.73618	1337.01379	85.24763	282.97778	1551.11621	255.15337	-15.66566	1258.06873	31.80018	587.88025	1259.58374	372.95551	-46.36301	1163.06812	-184.71225	640.55005	1075.90051	223.35963	297.53198	933.41217	32.47540	530.13202	987.07239	195.56532	258.57028	999.56561	332.26706	265.55634	498.88171	72.57594	594.66559	568.19464	147.39996	200.60042	109.21262	299.31979	601.86914	145.42653	242.67062	
429	4.280	428.35522	1558.85547	-54.31239							311.65067	1475.71973	-104.32536	136.51045	1483.06921	74.43372	525.43292	1506.62451	209.24532	389.12088	1336.21216	78.27611	290.77646	1550.21448	248.98105	-10.64961	1256.81311	30.37835	595.39844	1258.51428	364.41370	-42.19785	1160.59241	-184.81818	646.88843	1074.73389	215.35535	300.74146	932.11041	28.25409	534.16956	985.65448	188.35562	265.68143	998.81909	329.05508	268.01312	498.26147	71.29584	596.01813	564.89178	143.41740	201.34216	109.83231	299.54187	618.71375	141.28772	223.53474	
430	4.290	433.44180	1559.27625	-61.43015							316.22061	1476.47485	-110.65601	142.24022	1482.91199	69.64479	532.39655	1505.37756	201.35741	394.21347	1335.10596	72.16587	298.07611	1549.58276	243.02002	-6.05988	1256.10010	29.39433	602.87750	1257.27905	356.21039	-37.81031	1157.22620	-184.55132	653.11060	1073.59338	206.72392	304.66885	931.09589	23.57342	538.05450	984.35529	181.04071	273.18756	999.10889	325.22217	270.50812	497.63907	69.26967	597.79260	561.16498	140.11021	201.82761	110.54469	299.20978	633.92572	138.14680	204.82455	
431	4.300	438.22562	1559.08130	-68.99379							321.27658	1476.09021	-117.04665	147.84444	1482.48340	65.16131	538.65845	1503.73120	193.15057	399.29117	1334.18640	64.83592	304.74341	1549.55298	237.01575	-0.49781	1254.94202	28.24763	610.46069	1256.42139	348.40668	-33.40991	1153.48389	-184.56612	659.03479	1072.03516	198.42570	307.96640	929.50580	20.95748	542.32452	982.85266	174.50835	280.14798	998.01355	321.04053	273.79401	496.86444	69.07944	599.49951	557.29321	136.89861	202.32266	111.36538	299.02148	647.42108	136.48076	187.17792	
432	4.310	443.51840	1558.79236	-75.41495							325.81445	1476.50989	-124.32532	153.52066	1481.49658	60.22169	545.80157	1502.62988	184.39154	405.09372	1333.27991	56.92362	312.66898	1548.14502	230.90878	4.87141	1253.76660	26.39379	618.12561	1255.14685	339.38425	-28.90836	1150.23840	-185.09834	665.20807	1070.43420	189.54106	311.70056	928.17206	16.19383	546.45087	981.61768	165.99998	287.65039	997.31439	316.97449	276.55029	496.79993	68.98014	602.14722	553.56219	133.89203	202.22801	112.42086	299.15265	659.89417	135.18205	170.03006	
